<svg width="420" height="200" viewBox="0 0 420 200" xmlns="http://www.w3.org/2000/svg">

  <!-- Emitting lines (lighter for dark mode) -->
  <line x1="100" y1="20" x2="100" y2="35"
        stroke="#D1D5DB" stroke-width="2.5" stroke-linecap="round"/>
  <line x1="50" y1="55" x2="65" y2="65"
        stroke="#D1D5DB" stroke-width="2.5" stroke-linecap="round"/>
  <line x1="150" y1="55" x2="135" y2="65"
        stroke="#D1D5DB" stroke-width="2.5" stroke-linecap="round"/>

  <!-- Bulb glass (small) -->
  <path d="M100 50
           C75 50 60 70 60 90
           C60 105 68 115 73 120
           C76 123 78 130 78 140
           H122
           C122 130 124 123 127 120
           C132 115 140 105 140 90
           C140 70 125 50 100 50Z"
        fill="#9CA3AF"/>

  <!-- Bulb base (small, dark gray) -->
  <rect x="82" y="140" width="36" height="8" rx="4" fill="#6B7280"/>
  <rect x="86" y="148" width="28" height="6" rx="3" fill="#4B5563"/>

  <!-- AskMe (light text) -->
  <text x="160" y="102"
        font-size="42"
        font-weight="700"
        fill="#F3F4F6"
        font-family="Montserrat, Inter, system-ui, Arial, sans-serif">
    AskMe
  </text>

  <!-- chatbot (medium gray) -->
  <text x="162" y="138"
        font-size="20"
        font-weight="500"
        letter-spacing="1.1"
        fill="#D1D5DB"
        font-family="Montserrat, Inter, system-ui, Arial, sans-serif">
    chatbot
  </text>

</svg>
