<svg width="200" height="200" viewBox="0 0 200 200" xmlns="http://www.w3.org/2000/svg">

  <!-- Emitting lines (dark) -->
  <line x1="100" y1="10" x2="100" y2="35"
        stroke="#4B5563" stroke-width="4" stroke-linecap="round"/>
  <line x1="35" y1="45" x2="60" y2="65"
        stroke="#4B5563" stroke-width="4" stroke-linecap="round"/>
  <line x1="165" y1="45" x2="140" y2="65"
        stroke="#4B5563" stroke-width="4" stroke-linecap="round"/>

  <!-- Bulb glass -->
  <path d="M100 40
           C65 40 45 70 45 100
           C45 125 62 140 72 150
           C77 155 80 165 80 175
           H120
           C120 165 123 155 128 150
           C138 140 155 125 155 100
           C155 70 135 40 100 40Z"
        fill="#6B7280"/>

  <!-- Bulb base -->
  <rect x="80" y="175" width="40" height="12" rx="6" fill="#4B5563"/>
  <rect x="85" y="189" width="30" height="9" rx="4.5" fill="#374151"/>

</svg>
